<svg width="124" height="64" viewBox="0 0 124 64" fill="none" xmlns="http://www.w3.org/2000/svg">
<path d="M5 52.5L5.5 53H6.5L7.5 54H9.5L11.5 52H14.5L15 52.5V54.5L15.5 55L16.5 54H18.5L20.5 56H22.5L24 54.5V53.5L26.5 51H30.5L31.5 50H38.5L39.5 49H43.5L44 49.5V52.5L46 54.5V55.5L48.5 58H50.5L51.5 59H59.5L60.5 60H68.5L69.5 61H76.5L77.5 62H82.5L83.5 63H84.5L85 62.5V61.5L89.5 57H90.5L91.5 56H95.5L96.5 55H97.5L98.5 56L99.5 55H100.5L101.5 54H103.5L104.5 53H106.5L107 52.5V50.5L107.5 50H109L110 48.5V47.5L112.5 45H113.5L114 44.5V43.5L113 42.5V40.5L114 39.5L113 38.5V36.5L114.5 35H115.5L116 34.5V32.5L114.5 31H112.5L112 30.5V29.5L115.5 26H116.5L118.5 28L119.5 27H121.5L122 26.5V25.5L121 24.5V23.5L122 22.5V21.5L123 20.5V19.5L121.5 18H120.5L119 16.5V14.5L117 12.5V10L118 8.5V6.5L116.5 5H115.5L114.5 4H113.5L112.5 3H111.5L109.5 5H103.5L101.5 3H97.5L96.5 2H95.5L94.5 1H91.5L91 1.5L90.5 2H89.5L88.5 1L88 1.5V3.5L84 7.5V8.5L81.5 11L80.5 10H79.5L78.5 11H77.5L76.5 12H75.5L74.5 11H73.5L72.5 10H71.5L69.5 8L69 8.5V11.5L67.5 13H64.5L63.5 12L63 12.5V17.5L62.5 18H61.5L60.5 19H59.5L58.5 20H57.5L56.5 21H55.5L53 23.5L54 24.5V25.5L56 27.5V28.5L57 29.5V30.5L56 31.5L56.5 32H57.5L58 32.5V33.5L59 34.5V36.5L57 38.5V39.5L56.5 40H55.5L54.5 39H53.5L53 38.5V37.5L52 36.5V35.5L51.5 35H49.5L48.5 36H47.5L46.5 35H44.5L42.5 37H39.5L38.5 38H34.5L32.5 40H30.5L28.5 42H26.5L25.5 43H23.5L20.5 40H18.5L17.5 39H15.5L15 39.5V42.5L12.5 45H10.5L8 42.5V41.403L7.5 41H5.5L4.5 40H3.5L2.5 39L1 40.5V41.403C4.13613 42.5278 5 45.7338 5 47.5V52.5Z" stroke="black"/>
</svg>
