<svg width="58" height="48" viewBox="0 0 58 48" fill="none" xmlns="http://www.w3.org/2000/svg">
<path d="M11 1.5L11.5 1L12 1.5V3.5L13.5 5H15.5L16.5 4H17.5L19.5 6H23.5L24.5 5H25.5L27.5 3H29.5L30.5 2H35.5L36.5 3H38.5L39 3.5V4.5L39.5 5H40.5L42.5 7L43.5 6H44.5L47.5 9H48.5L49 9.5V11.5L48 12.5V13.5L46 15.5L47 16.5V18.5L47.5 19H51.5L54.5 22L55 22.5L54 23.5V24V24.5L55.5 26H56.5L57 26.5V28.5L53.5 32H51.5L49 34.5V35.5L48 36.5V37.5L47 38.5V39V40.5L46 41.5L48 43.5V46.5L47.5 47H43.5L43 46.5V45.5L40.5 43H39.5L37.5 41H36.5L35.5 40H34.5L34 39.5L35 38.5V37.5L34 36.5V35.5L35 34.5V31.5L34.5 31H32.5L30 33.5V35.5L29.5 36H26.5L25 34.5V32.5L24 31.5V30.5L25 29.5V28.5L22.5 26H19.5L19 25.5L18.5 25H17.5L17 24.5V23.5L14.5 21H11.5L11 20.5V16.5L8.5 14H5.5L4.5 15L1 11.5L2 10.5V9.5L1 8.5V6.5L2.5 5H3.5L4.5 4H5.5L6.5 3H7.5L8.5 2H10.5L11 1.5Z" stroke="black"/>
</svg>
