<svg width="101" height="96" viewBox="0 0 101 96" fill="none" xmlns="http://www.w3.org/2000/svg">
<path d="M1 30.5L1.5 30L2.5 31H8.5L9.5 30H11.5L12.5 29H13.5L14.5 30H15.5L19.5 26L22.5 29H27.5L28.5 30H30.5L31.5 29H32.5L34 27.5V26.5L33 25.5V24.5L34 23.5V22.5L33 21.5L34.5 20H36.5L38 18.5V17.5L39 16.5V13.5L37 11.5V10.5L39.5 8H40.3816L41.5 7H42.5L44.5 5H45.5L47 3.5V1.5L47.5 1H50.5L53.5 4H55.5L56 4.5V5.5L57.5 7H58.5L59.5 8H60.5L65.5 13H69.5L70 13.5V14.5L71.5 16H73.5L74.5 17L75.5 16H77.5L78.5 17L79.5 16H84.5L85.5 15H86.5L89.5 12H91.5L92 12.5V13.5L93 14.5V18.5L95 20.5V22.5L97.5 25H99.5L100 25.5V26.5L98 28.5V33.5L97 34.5L96.5 35H95.5L95 34.5V33.5L91.5 30H85.5L84.5 29H83.5L81.5 31L80.5 30H78.5L76.5 32H75.5L74.5 31H72.5L71.5 32L70.5 31H63.5L62.5 30H59.5L58.5 31H53.5L50.5 34L50 34.5V35.5L49.5 36L45.5 32H41.5L40 33.5V43.5L40.5 44L42.5 46H43.5L44 46.5L48 50.5V52.5L49 53.5V55.5L50 56.5V57.5L58.5 66H59.5L66.5 73H67.5L68.5 74H70.5L71 74.5V76.5L72 77.5V78.5L75.5 82H76.5L78 83.5V84.5L77.5 85H76.5L74.5 83H73.5L71.5 81H70.5L67.5 78H66.5L63.5 75L62.5 76L61.5 75H59.5L58.5 74H56.5L55.5 73H53.5L52.5 74H51.5L50.5 75H48.5L48 74.5V73.5L47 72.5V71.5L44.5 69H42.5L39.5 66H38.5L32.5 60L32 59.5V58.5L32.5 58H33.5L34.5 57H35.5L36.5 58L37.5 59H38.5L39.5 60L40 59.5V57.5L39.5 57H38.5L37.5 56H36.5L35.5 55H34.5L30.5 51L29.5 50H28.5L28 49.5V48.5L26 46.5V39.5L25 38.5V37.5L23.5 36H22.5L19.5 33H18.5L17.5 32H16.5L15.5 31L14 32.5V36.5L12 38.5V40.5L10 42.5V44.5L8.5 46L7 44.5V43.5L4 40.5V37.5L2 35.5V32.5L1 31.5V30.5Z" stroke="black"/>
<path d="M15 37.5L15.5 37L16 37.5V38.5L17 39.5V40.5L18 41.5V46.5L19 47.5V48.5L18.5 49L17 47.5V46.5L16 45.5V43.5L17 42.5L16 41.5V40.5L15 39.5V37.5Z" stroke="black"/>
<path d="M19 35.5L19.5 35L21 36.5L22 37.5V38.5L23 39.5V40.5L22.5 41H21.5L19.5 39H18.5L18 38.5V37.5L19 36.5V35.5Z" stroke="black"/>
<path d="M32 55.5L29.5 53L29 53.5L31.5 56L32 55.5Z" stroke="black"/>
<path d="M57 78.5V77.5L57.5 77H60.5L61.5 78H63.5L64 78.5L63.5 79H57.5L57 78.5Z" stroke="black"/>
<path d="M60 81.5L60.5 81L61.5 82L62 82.5L61.5 83H60.5L60 82.5V81.5Z" stroke="black"/>
<path d="M62 87.5L62.5 87H65.5L66.5 86H69.5L70 86.5L69.5 87H67.5L65.5 89H63.5L62.5 88L62 87.5Z" stroke="black"/>
<path d="M73.5 85H72.5L72 85.5L72.5 86H73.5L75.5 88H78.5L79 87.5L78.5 87H76.5L75.5 86H74.5L73.5 85Z" stroke="black"/>
<path d="M86.5 91L82.5 87L82 87.5L83 88.5V89.5L85.5 92H87.5L89.5 94H91.5L92.5 95H95.5L96 94.5L95.5 94H93.5L92.5 93H90.5L88.5 91H86.5Z" stroke="black"/>
</svg>
