<svg width="107" height="59" viewBox="0 0 107 59" fill="none" xmlns="http://www.w3.org/2000/svg">
<path d="M46 1.5L45.5 1H44.5L44 1.5V2.5L42.5 4H41.5L40.5 5H37.5L36 3.5V2.5L34.5 1H33.5L33 1.5V2.5L29.5 6H28.5L25.5 9H22.5L21 10.5V11.5L20.5 12H17.5L17 12.5V13.5L15.5 15H14.5L12.5 17H6.5L5 18.5V19.5L3.5 21H2.5L1 22.5L2 23.5V24.5L2.5 25H3.5L7 28.5V30.5L6 31.5V33.5L7 34.5V35.5L9 37.5V39.5L9.5 40H10.5L11.5 41H12.5L13.5 42H14.5L16 43.5V44.5L18.5 47H19.5L20.5 48H21.5L22 48.5V49.5L22.5 50H24.5L26.5 52H27.5L29 53.5V54.5L29.5 55H30.5L32.5 57H33.5L34.5 58H37.5L38.5 57H41.5L42 56.5V55.5L46 51.5V48.5L46.5 48H54.5L55.5 49H56.5L57.5 50H61.5L63.5 52H68.5L70.5 50H73.5L74.5 51H75.5L76.5 52H77.5L81.5 48H87.5L88.5 47H89.5L92.5 44L93 43.5V42.5L93.5 42H94.5L95 41.5V38.5L96 37.5V36.5L101 31.5V30.5L101.5 30H102.5L103.5 29H105.5L106 28.5L103.5 26H102.5L101 24.5V22.5L100.5 22H99.5L98.5 21H97.5L96.5 22L94.5 20H92.5L91.5 21H89.5L83.5 15H80.5L77.5 12H75.5L75 12.5L77 14.5V15.5L75.5 17H74.5L71.5 20H69.5L68 18.5V17.5L64.5 14H63.5L62 12.5V11.5L65 8.5L63.5 7L62.5 8H59.5L58.5 7H56.5L55.5 6H52.5L51.5 5H50.5L49.5 6L46 2.5V1.5Z" stroke="black"/>
</svg>
