<svg width="274" height="213" viewBox="0 0 274 213" fill="none" xmlns="http://www.w3.org/2000/svg">
<path d="M179 198.5L180.5 197L181 197.5V199.5L180.5 200H179.5L179 199.5V198.5Z" stroke="black"/>
<path d="M182 192.5V202.5L183.5 204L184.5 203L185.5 204H186.5L187.5 205H189.5L190.5 206H191.5L192.5 205H194.5L195.5 204L196.5 205L197.5 204H198.5L199.5 205H201.5L202 204.5V203.5L199.5 201H198.5L197.5 200L196.5 201H194.5L194 200.5V198.5L194.5 198H195.5L197 196.5V195.5L195 193V191.5L197 189.5V188.5L198 187.5V186.5L199.5 185H200.5L201 184.5V182.5L202.5 181H203.5L204 180.5V173.5L205.5 172H206.5L207.5 173H209.5L210.5 174L211 173.5V172.5L213 170.5V168.5L214 167.5V166.5L212.5 165H206.5L206 164.5L205 163.5V162.5L206 161.5L205 160.5V153.5L206 152.5V149.5L207 148.5V147.5L208 146.5L207 145.5V144.5L208 143.5V142.5L207 141.5V140.5L206 139.5V138.5L209 135.5L208.5 135H207.5L203.5 139H200.5L198 141.5V142.5L196 144.5V145.5L195 146.5V147.5L193.5 149H192.5L191.5 150H185.5L184.5 151H183.5L182.5 150L181 151.5V152.5L179 154.5V155.5L177 157.5V159.5L176 160.5V163.5L175 164.5V174.5L179 178.5V180.5L178.5 181H177.5L176 182.5V184.5L175 185.5V186.5L174 187.5V188.5L174.5 189H175.5L176.5 190L177 189.5V188.5L177.5 188L178 188.5V189.5L179 190.5L179.5 191H180.5L182 192.5Z" stroke="black"/>
<path d="M212.5 146L212 146.5L213 147.5L213.5 148L214 147.5L214.5 147L215 146.5V145.5L214.5 145L213.5 146H212.5Z" stroke="black"/>
<path d="M209 178.5L208.5 178L208 178.5V182.5L208.5 183L209 182.5L209.5 182L210 181.5V180.5L209 179.5V178.5Z" stroke="black"/>
<path d="M198 195.5L200.5 198H201.5L203 199.5V200.5L203.5 201L204.5 200L205.5 201H209.5L210.5 200H211.5L212 200.5V202.5L211 203.5V205.5L210 206.5V207.5L210.5 208H211.5L212 207.5V205.5L213 204.5V202.5L213.5 202L214 201.5V199.5L212 197.5V193.5L210 191.5L211 190.5V189.5L209.5 188L208.5 189H207.5L206.5 188H202.5L201.5 189H200.5L199.5 190H197.5L197 190.5L199 192.5L198 193.5L199 194.5L198 195.5Z" stroke="black"/>
<path d="M218.5 203H216.5L216 203.5V206.5L215.5 207L215 207.5L215.5 208H216.5L217.5 209H219.5L221.5 211H222.5L223.5 210H227.5L228 210.5V211.5L228.5 212L229 211.5V208.5L231 206.5V204.5L231.5 204H232.5L234.5 202H235.5L236.5 203L237 202.5V201.5L236.5 201H233.5L232.5 202L231 200.5V196.5L231.5 196H233.5L235 194.5V192.5L234.5 192H233.5L232 190.5V188.5L234.5 186L235.5 187L237 185.5V182.5L236 181.5V179.5L235 178.5L236 177.5V175.5L235.5 175H234.5L233.5 174H231.5L230.5 175H229.5L226.5 177.5L229 179.5V180.5L228.5 181H227.5L226.5 182H224.5L224 181.5V180.5L225 179.5V178.5L224.5 178L223.5 179H222.5L221.5 178H219.5L219 178.5L219.5 179H220.5L222 180.5L217.5 185L216.5 184H215.5L215 184.5V186.5L215.5 187H216.5L217 187.5V190.5L218 191.5L217 192.5V193.5L219 195.5L218 196.5L218.5 197H224.5L226 198.5V200.5L227 201.5V202.5L226.5 203H225.5L225 203.5V204.5L223.5 206H221.5L219 203.5L218.5 203Z" stroke="black"/>
<path d="M267.5 192L267 192.5V197.5L267.5 198H268.5L269.5 199H271.5L272.5 198L273 197.5V195.5L272.5 195H271.5L270.5 194H269.5L267.5 192Z" stroke="black"/>
<path d="M11.5 2L11 2.5V4.5L11.5 5L12 4.5V2.5L11.5 2Z" stroke="black"/>
<path d="M4 18.5L3.5 18L3 18.5V21.5L3.5 22L4 22.5V23.5L4.5 24L5 23.5V19.5L4.5 19L4 18.5Z" stroke="black"/>
<path d="M8 14.5L7.5 15L5 12.5V11.5L7 9.5L4.5 7H1.5L1 6.5V4.5L3 2.5V1.5L3.5 1H6.5L9 3.5V4.5L7 6.5L8 7.5V10.5L7 11.5V12.5L8 13.5V14.5Z" stroke="black"/>
</svg>
