<svg width="236" height="247" viewBox="0 0 236 247" fill="none" xmlns="http://www.w3.org/2000/svg">
<path d="M125.5 1H123.5H120.5L119.5 2H115.5L114.5 3H113.5L112 4.5V6.5L111 7.5V12.5L110 13.5V16.5L109 17.5V20.5L104.5 25H103.5L102.5 26H98.5L97.5 27H93.5L92.5 28H90.5L89.5 29H87.5L86 30.5V31.5L84 33.5V34.5L84.5 35H85.5L87 36.5L86.5 37H84.5L83.5 38H82.5L81.5 39H78.5L77.5 38H76.5L75.5 37H71.5L70.5 36H68.5L67.5 35H64.5L64 34.5V33.5L63 32.5V31.5L62 30.5L64 28.5L61.5 26H60.5L59.5 27H57.5L56.5 26H55.5L54.5 25H53.5L53 25.5L54 26.5V28.5L53 29.5L54 30.5V33.5L55 34.5V35.5L56 36.5V45.5L55 46.5V48.5L56 49.5V50.5L54.5 52H50.5L50 51.5V49.5L49.5 49H48.5L47.5 50H46.5L45.5 51H44.5L42.5 49H40.5L39.5 50H38.5L37.5 51H36.5L35 49.5V48.5L33 46.5V45.5L31 43.5L32 42.5L31.5 42H30.5L29.5 43L28.5 42H23.5L23 42.5V43.5L21.5 45L19.5 43L18.5 44H17.5L16.5 43H13.5L12.5 44H11.5L10.5 43H7.5L6.5 44H4.5L3 45.5V46.5L2.5 47L2 47.5V49.5L2.5 50H3.5L4 50.5V51.5L5 52.5V53.5L6 54.5V55.5L5.5 56H1.5L1 56.5L3 58H4.5L6 59.5V63.5L6.5 64H8.5L10.5 62L11.5 63H12.5L14.5 65H15.5L16.5 66H17.5L18.5 67H19.5L20 67.5V68.5L20.5 69H22.5L24 70.5V71.5L25.5 73H28.5L29 73.5V75.5L29.5 76H33.5L35 77.5V78.5L34 79.5L35 80.5V81.5L39 85.5V86.5L39.5 87H40.5L42 88.5L41 89.5V90.5L40.5 91H39.5L39 91.5V92.5L38 93.5L40 95.5V96.5L42 98.5V101.5L43 102.5V103.5L43.5 104H44.5L45.5 105H46.5L47 105.5V106.5L48.5 108H49.5L51 109.5V110.5L52 111.5V112.5L53 113.5V114.5L54 115.5L53 116.5V118.5L51.5 120L50 118.5V117.5L48.5 116L48 116.5V117.5L49 118.5V119.5L50 120.5V121.5L49 122.5V123.5L49.5 124H50.5L53 126.5L51.5 128H50.5L50 128.5V129.5L49 130.5V134.5L48 135.5V137.5L47 138.5V141.5L46 142.5V145.5L45 146.5V147.5L46 148.5V150.5L44 152.5V154.5L43 155.5V158.5L42 159.5V161.5L41 162.5V164.5L40 165.5V167.5L39 168.5V169.5L38 170.5V173.5L35 176.5V177.5L33.5 179H31.5L31 179.5L31.5 180H32.5L33.5 181H34.5L35.5 182H37.5L38 182.5V185.5L39 186.5V187.5L39.5 188H40.5L41.5 189H42.5L44.5 191H47.5L49 192.5V193.5L51.5 196H53.5L54.5 195H55.5L57.5 197H58.5L59 197.5V199.5L59.5 200H62.5L63.5 199L64.5 200H67.5L68.5 201H70.5L72 199.5V198.5L73.5 197L74.5 198H75.5L77.5 200H80.5L82.5 202H84.5L85 202.5L85.6471 203C86.6457 201.857 88.187 201 90.5 201C95.7 201 97 205.333 97 207.5V211.5L97.5 212H98.5L99.5 211L100.5 212H103.5L105.5 214H106.5L107.5 213H109.5L110.5 212H112.5L113.5 211L115.5 213H116.5L117 212.5V211.5L116.5 211H115.5L115 210.5V206.5L116 205.5V204.5L115 203.5L116 202.5L115 201.5L117 199.5V197.5L120.5 194H121.5L122.5 193H125.5L127.5 191H129.5L131.5 189H132.5L134.5 187H136.5L137 187.5V188.5L138.5 190L139.5 189L140.5 190H143.5L145 191.5V192.5L145.5 193H148.5L149.5 192H152.5L153 192.5V193.5L153.5 194H158.5L159 194.5V195.5L158 196.5L158.5 197H161.5L162.5 198H164.5L166 199.5V200.5L167.5 202L169.5 200L170.5 201H171.5L172.5 202L174.5 200H175.5L176.5 201L177.5 200H178.5L179.5 199H181.5L183 197.5L182 196.5L184 194.5V193.5L184.5 193H186.5L189.5 190H190.5L191.206 189.5C190.483 188.537 190 187.236 190 185.5C190 180.3 194.333 179 196.5 179H199.5L201 177.5L200.5 177H194.5L193.5 176H192.5L190.5 174H188.5L188 173.5V172.5L187 171.5V167.5L186 166.5V165.5L188 163.5V162.5L189 161.5V159.5L188.5 159H187.5L185 156.5V155.5L183 153.5V150.5L183.5 150H185.5L186.5 149L187.5 150H188.5L190.5 148H191.5L192 147.5L191 146.5L191.5 146L192 145.5V144.5L190 142.5V141.5L189 140.5V139.5L187 137.5V136.5L186 135.5V134.5L187.5 133H189.5L191 131.5L188 128.5V127.5L186 125.5L187 124.5V121.5L186 120.5V119.5L185.5 119H183.5L182.5 120H180.5L179 121.5L180 122.5V123.5L177.5 126H175.5L174.5 127L173 125.5V123.5L176 120.5L175 119.5V116.5L176 115.5V114.5L179.5 111H180.5L181 110.5V108.5L182 107.5V105.5L182.5 105H183.5L184.5 104H185.5L186 103.5V102.5L187.5 101H188.5L190 99.5V98.5L191 97.5L190 96.5V94.5L192.5 92H194.5L196.5 94H197.5L201 90.5V89.5L200 88.5V86.5L201 85.5V82.5L202 81.5V80.5L201 79.5V78.5L202 77.5V76.5L203 75.5V74.5L204 73.5V70.5L205 69.5V68.5L206 67.5V65.5L207.5 64L208 63.5V62.5L209.5 61H210.5L211 60.5V58.5L208.5 56L207.5 57H206.5L205.5 56H203.5L202.5 55H201.5L201 54.5V53.5L200.5 53L199.5 54H195.5L194.5 55L193 53.5V52.5L192.5 52L191.5 53H189.5L188 51.5V50.5L186 48.5V46.5L184.5 45H182.5L181.5 44L180.5 45H177.5L176.5 44H175.5L174.5 43H171.5L170.5 44H169.5L169 43.5V41.5L168.5 41H167.5L162.5 36H160.5L159 34.5L160 33.5V28.5L159.5 28L159 28.5V29.5L157.5 31H156.5L155.5 32H153.5L152.5 31H149.5L149 30.5V22.5L148.5 22H146.5L145.5 21H144.5L143.5 22H142.5L142 21.5V17.5L141.5 17H137.5L136 15.5V11.5L135.5 11H134.5L133.5 10L132.5 11H130.5L127 7.5V3.5L126 2.5V1.5L125.5 1Z" stroke="black"/>
<path d="M232.5 205H231.5L231 205.5V210.5L229.5 212H226.5L224.5 214H222.5L221.5 215H220.5L219 216.5V218.5L217 220.5L218 221.5V222.5L217 223.5V226.5L219 228.5L218 229.5V231.5L220 233.5V234.5L219 235.5L219.5 236H220.5L222 237.5V238.5L221 239.5V240.5L222.5 242H223.5L224.5 243H225.5L228.5 246L229 245.5V243.5L230 242.5V241.5L231 240.5L230 239.5L232 237.5V230.5L235 227.5V221.5L234 220.5L235 219.5V216.5L233 214.5V211.5L234 210.5V208.5L233 207.5V205.5L232.5 205Z" stroke="black"/>
</svg>
