<svg width="139" height="186" viewBox="0 0 139 186" fill="none" xmlns="http://www.w3.org/2000/svg">
<path d="M48.5 2H47.5H45.5L44.5 1L43.5 2H42.5L42 2.5V3.5L44 5.5V6.5L47 9.5V11.5L46.5 12H45.5L44.5 13H42.5L41.5 14L41 14.5V15.5L41.5 16H42.5L43.5 15L45 16.5L44 17.5V18.5L44.5 19H45.5L47 20.5V21.5L46.5 22H45.5L45 22.5V23.5L47 25.5L45.5 27H43.5L42 25.5L41.5 25L41 25.5V26.5L40 27.5V28.5L39 29.5V30.5L37.5 32H36.5L35.5 33H34.5L33 31.5V30.5L31.5 29H29.5L28.5 30H21.5L19 32.5V33.5L18 34.5V37.5L18.5 38H19.5L21 39.5V40.5L22 41.5L21 42.5V47.5L20 48.5V49.5L19 50.5V55.5L18.5 56H14.5L14 56.5V57.5L13 58.5L13.5 59H17.5L18 59.5V60.5L19 61.5V62.5L18 63.5V65.5L14.5 69H13.5L13 69.5L15 71.5L12.5 74H10.5L9.5 75H7.5L6.5 76L5.5 75H4.5L3.5 74H2.5L1.5 75L1 75.5L2 76.5V77.5L3 78.5V79.5L4 80.5V81.5L5 82.5V86.5L4 87.5L3 88.5V89.5L4 90.5L3 91.5L2 92.5L1 93.5V95.5L2 96.5V98.5L1 99.5V100.5L5 104.5L4 105.5L6 107.5V111.5L2 115.5V119.5L4.5 122L5.5 123H6.5L8 124.5V125.5L7 126.5V127.5L5 129.5V131.5L5.5 132H6.5L7 132.5V133.5L8 134.5V135.5L8.5 136L9 136.5L10 137.5V138.5L10.5 139L11.5 138H13.5L15.5 140H16.5L17.5 141L19.5 139H21.5L23 140.5V141.5L23.5 142H24.5L25.5 143L26.5 142L27.5 143L28.5 142L30 143.5L30.5 144H31.5L32 144.5L32.5 145H33.5L34 145.5V146.5L33 147.5V148.5L28 153.5V154.5L27 155.5V157.5L26 158.5V161.5L25 162.5V163.5L24 164.5V165.5L23 166.5V167.5L24 168.5V169.5L23 170.5V173.5L22 174.5V176.5L23 177.5V178.5L23.5 179H25.5L26 178.5L26.5 178L27.5 179H30.5L31.5 178H33.5L34.5 179H35.5L36 178.5L35 177.5V176.5L36 175.5V174.5L36.5 174H37.5L38.5 173L39.5 174H41.5L44.5 177L45.5 176H46.5L47.5 177H51.5L52.5 178H53.5L55.5 180H56.5L57.5 179H59.5L60.5 180H61.5L62.5 181H63.5L67.5 185L69 183.5V180.5L70.5 179H73.5L74 179.5L74.5 180H75.5L76 179.5L76.5 179L80.5 183L81.5 182H83.5L85.5 180H87.5L89.5 178H93.5L94.5 177H97.5L98 176.5V175.5L99.5 174L100.5 175H102.5L103.5 176H104.5L105.5 175H107.5L110 177.5V178.5L111.5 180L112 179.5V177.5L112.5 177L113 176.5L112.5 176H111.5L110 174.5V173.5L111 172.5V171.5L109 169.5V168.5L107 166.5V164.5L109.5 162H110.5L112.5 160H114.5L115.5 159H116.5L117 158.5V153.5L118.5 152H119.5L120.5 153H122.5L123 152.5V147.5L122.5 147H121.5L119.5 145H117.5L116 143.5V142.5L115.5 142H114.5L114 141.5L113.5 141H112.5L112 140.5V139.5L108.5 136H106.5L103 132.5V131.5L102 130.5V129.5L101 128.5L99 126.5V125.5L100 124.5V123.5L101 122.5L100 121.5V120.5L99.5 120H98.5L97 118.5L96 117.5V116.5L94 114.5V112.5L95.5 111L96.5 112H98.5L102.5 108H104.5L105.5 107H108.5L114.5 102H115.5L117.5 100H120.5L122.5 98H123.5L124.5 97H125.5L127 95.5V92.5L128.5 91H131.5L134 93.5V95.5L134.5 96H135.5L136 95.5V93.5L136.5 93L137 92.5V90.5L137.5 90L138 89.5V86.5L137 85.5V82.5L136.5 82H135.5L134.5 81H133.5L133 80.5V77.5L131 75.5V74.5L130 73.5V72.5L130.5 72L131.5 71L132.5 70L133 69.5V68.5L131 66.5V63.5L130.5 63H129.5L129 62.5V60.5L128.5 60L128 59.5V58.5L128.5 58L129 57.5V54.5L128.5 54H127.5L123.5 50H122.5L121 48.5L122 47.5V44.5L122.5 44H123.5L125 42.5V40.5L124.5 40L124 39.5L124.5 39L125 38.5V36.5L124.5 36L124 35.5V33.5L123.5 33L123 32.5V29.5L122 28.5V27.5L121.5 27H119.5L118 25.5L119.5 24H121.5L122 23.5V22.5L120.5 21H119.5L117 18.5L116.5 18H115.5L115 17.5L114.5 17H113.5L112.5 18H110.5L108 15.5L111.5 12H112.5L113.5 13H114.5L115 12.5L113.5 11H112.5L112 10.5V9.5L112.5 9L113 8.5V7.5L112.5 7H111.5L109.5 9L108 7.5L109 6.5V5.5V4.5L108.5 4L108 4.5V5.5L107 6.5V7.5L106 8.5L107 9.5V11.5L105.5 13L103.5 11L102.5 12L102 12.5L101.5 13H98.5L98 12.5V10.5L97.5 10H96.5L96 10.5V11.5L96.5 12L97 12.5V13.5L95 15.5L94.5 16H92.5L92 16.5V18.5L91.5 19L90.5 18H88.5L87.5 19L87 18.5L86.5 18H85.5L84.5 19L84 19.5V20V21.5L82 23.5L81.5 24H80.5L80 23.5L79.5 23L79 22.5L78.5 22H78H76.5L76 22.5L75.5 23H73.5L73 22.5L72.5 22L72 21.5V20.5L72.5 20H73.5L74.5 19H75.5L77 17.5V15.5L76.5 15L76 14.5L78.5 12L79 11.5V10.5L78.5 10H77.5H76.5L76 10.5V11.5L75.5 12L74.5 13L73.5 14L72.5 15H71.5L70.5 14H69.5L68.5 13H66.5L65.5 12H64.5L63.5 11H62.5L61 9.5V8.5L61.5 8L62 7.5L61 6.5L60.5 6L60 5.5L60.5 5L61 4.5L60.5 4H59.5H58.5H57.5L57 3.5L56.5 3H55.5H54.5H53.5L53 3.5L52.5 4H51.5H50.5L50 3.5L49.5 3L49 2.5L48.5 2Z" stroke="black"/>
</svg>
