<svg width="107" height="76" viewBox="0 0 107 76" fill="none" xmlns="http://www.w3.org/2000/svg">
<path d="M13 25.5L14.5 24H15.5L19.5 28H20.5L21.5 29H23.5L24.5 30L25.5 29H33.5L34.5 28H37.5L38.5 27H39.5L42 24.5V23.5L41 22.5V20.5L42.5 19H46.5L47.5 18H49.5L52 15.5V14.5L52.5 14H54.5L55.5 15H58.5L59.5 14H60.5L62.5 12H63.5L65 10.5V9.5L66 8.5V6.5L67 5.5V4.5L68.5 3H72.5L73.5 4L74.5 3L75.5 4L76.5 3H78.5L80.5 1L81.5 2H82.5L86.5 6H87.5L89.5 4H91.5L92.5 3H94.5L97.5 6H99.5L101.5 8H104.5L106 9.5L105 10.5V11.5L104 12.5V13.5L102.5 15H100.5L99.5 16H98.5L96 18.5V20.5L94 22.5V26.5L93 27.5V29.5L92 30.5V32.5L91 33.5V34.5L90 35.5V38.5L89 39.5V40.5L88 41.5V46.5L86 48.5V52.5L85 53.5V54.5L83.5 56H81.5L80.5 57H79.5L78 58.5V59.5L77.5 60H75.5L74.5 61H69.5L68.5 62H59.5L53.5 68H51.5L50.5 69H49.5L48.5 70H47.5L46.5 71H44.5L40.5 75H28.5L28 74.5V73.5L26.5 72H22.5L17.5 67H16.5L15.5 66H14.5L11.5 63H10.5L8.5 61H7.5L6 59.5V58.5L4 56.5V55.5L3 54.5V52.5L2.5 52H1.5L1 51.5L2.5 50H3.5L5 48.5V43.5L4 42.5V40.5L4.5 40H5.5L6 39.5V38.5L7 37.5V35.5L4 32.5V31.5L4.5 31H5.5L6 31.5V32.5L6.5 33H8.5L9.5 32H12.5L14 30.5L13 29.5V25.5Z" stroke="black"/>
</svg>
