<svg width="76" height="86" viewBox="0 0 76 86" fill="none" xmlns="http://www.w3.org/2000/svg">
<path d="M61.5 3L60.5 2H59.5L58.5 3H57.5L56.5 2H55.5L54.5 3H51.5L49 5.5V7.5L46.5 10H43.5L42 11.5L44.5 14H47.5L49 15.5V16.5L47.5 18H45.5L44.5 19H43.5L43 19.5V21.5L41.5 23L39.5 21H38.5L37.5 20H35.5L34.5 21H33.5L33 20.5V19.5L31.5 18H29.5L28.5 17H27.5L26.5 16L24.5 18L22.5 16H21.5L21 16.5V17.5L23 19.5V21.5L21.5 23L20.5 22H17.5L17 22.5L17.5 23H18.5L20 24.5V25.5L20.5 26H21.5L23 27.5L17.5 33H16.5L16 33.5L17 34.5V35.5L16 36.5L19.5 40H20.5L23.5 43H25.5L26.5 44H29.5L31 45.5L29.5 47H24.5L22 49.5L23 50.5L19.5 54H18.5L16.5 56H14.5L14 56.5L16 58.5L14.5 60H12.5L12 60.5V62.5L10.5 64H7.5L6.5 63H4.5L3.5 64H2.5L2 64.5L2.5 65H3.5L4.5 66H6.5L8 67.5L6.5 69H3.5L1 71.5V72.5L5 76.5L3 78.5L3.5 79H7.5L9 80.5L7 83V83.5L7.5 84H8.5L9.5 83H12.5L14.5 85H16.5L17.5 84H18.5L19.5 85H20.5L21.5 84L22.5 85H23.5L24.5 84H26.5L27.5 83H30.5L31.5 82H34.5L35.5 81H36.5L38.5 79H39.5L40.5 80L41.5 79H42.5L44.5 77H50.5L51.5 78H52.5L53.5 77L54.5 78L55.5 77H56.5L57.5 78H60.5L61.5 79L62 78.5V75.5L64 73.5V72.5L66 70.5V68.5L68 66.5V65.5L71 62.5V52.5L72 51.5V49.5L73 48.5V46.5L71 44.5V43.5L72 42.5V39.5L71 38.5L72.5 37H74.5L75 36.5L73.5 35H68.5L67 33.5V31.5L66 30.5V29.5L65 28.5V25.5L64.5 25L63 26.5V27.5L59.5 31H57.5L56.5 30H55.5L51 25.5V23.5L49 21.5V19.5L51.5 17H53.5L54 16.5L53 15.5V14.5L54.5 13H58.5L62 9.5V8.5L63.5 7H65.5L66.5 6H68.5L70 4.5L66.5 1L65.5 2H63.5L62.5 3H61.5Z" stroke="black"/>
</svg>
