<svg width="35" height="39" viewBox="0 0 35 39" fill="none" xmlns="http://www.w3.org/2000/svg">
<path d="M11.5 2L10.5 1L10 1.5V2.5L11 3.5V4.5L9.5 6H7.5L6.5 5L4 7.5V11.5L5 12.5L3.5 14H1.5L1 14.5L2 15.5V18.5L4 20.5V23.5L3 24.5V25.5L4.5 27L5 26.5V25.5L5.5 25H7.5L8 25.5V26.5L7 27.5V29.5L7.5 30H9.5L13.5 34H14.5L16 35.5V36.5L17.5 38H18.5L19 37.5V33.5L18 32.5V28.5L19 27.5V25.5L20 24.5V23.5L21 22.5V21.5L23.5 19H24.5L26 20.5V21.5L26.5 22L27.5 21H28.5L30 19.5V17.5L29 17V15.5L29.5 15H30.5L34 11.5L33.5 11H30.5L28.5 9H23.5L22.5 8H20.5L18.5 6H17.5L17 5.5V4.5L16.5 4H15.5L13.5 2H11.5Z" stroke="black"/>
</svg>
