<svg width="61" height="67" viewBox="0 0 61 67" fill="none" xmlns="http://www.w3.org/2000/svg">
<path d="M54.5 1H51.5L50.5 2H41.5L40.5 3H39.5L38.5 4H37.5L36.5 5H35.5L34 6.5V8.5L33 9.5L34 10.5V12.5L33 13.5V14.5L33.5 15H35.5L37 16.5L36 17.5V21.5L35.5 22H34.5L31.5 25H28.5L28 24.5V22.5L27 21.5V20.5L27.5 20H30.5L32 18.5L30.5 17H29.5L29 16.5V13.5L28.5 13H26.5L25 11.5V10.5L26 9.5V7.5L25.5 7L24 8.5V11.5L23 12.5V16.5L22 17.5V20.5L21 21.5V23.5L20 24.5V25.5L19 26.5V27.5L18 28.5V29.5L13.5 34H12.5L11 35.5L12 36.5V37.5L11.5 38H9.5L9 38.5V39.5L8.5 40H6.5L6 40.5V41.5L7 42.5V43.5L6.5 44H2.5L2 44.5V45.5L3 46.5V47.5L1 49.5V50.5L1.5 51L2.5 50H4.5L5.5 51H6.5L7.5 52H10.5L13.5 49H14.5L16.5 47H18.5L19.5 48L21.5 46H22.5L24.5 48L25.5 47H26.5L27 47.5V48.5L28 49.5V50.5L30.5 53L31.5 52H33.5L34 52.5V53.5L38 57.5V60.5L37 61.5V62.5L36 63.5V64.5L37.5 66L40 63.5L39 62.5V58.5L40 57.5V55.5L41 54.5V53.5L43 51.5V48.5L42 47.5V46.5L41 45.5V44.5L40 43.5V42.5L39 41.5V40.5L39.5 40L40.5 39H41.5L42.5 38H44.5L45.5 39H49.5L50.5 38H51.5L52 37.5V36.5L51 35.5V34.5L52.5 33H53.5L54 32.5L56 30.5V29.5L57 28.5L55.5 27H53.5L51 24.5V23.5L52 22.5V21.5L53.5 20H56.5L57 19.5V16.5L58 15.5V14.5L59 13.5V8.5L60 7.5L56 3.5V2.5L54.5 1Z" stroke="black"/>
</svg>
