<svg width="81" height="127" viewBox="0 0 81 127" fill="none" xmlns="http://www.w3.org/2000/svg">
<path d="M46.5 1H42.5H36.5L33 4.5V5.5L34 6.5V11.5L33 12.5V24.5L32 25.5V27.5L30 29.5V31.5L28 33.5V34.5L26 36.5V38.5L23 41.5V44.5L22 45.5V46.5L20 48.5V49.5L18 51.5V52.5L16 54.5V55.5L12.5 59H10.5L9 60.5V61.5L7 63.5V65.5L6 66.5V67.5L5 68.5V69.5L4 70.5V76.5L4.5 77H9.5L10 77.5V78.5L8.5 80H7.5L6 81.5V83.5L7.5 85H8.5L9.5 84H12.5L14 85.5V86.5L13 87.5V91.5L12 92.5V93.5L9 96.5V98.5L10 99.5V100.5L9 101.5V102.5L8 103.5V106.5L9 107.5V110.5L7.5 112H6.5L3 115.5V116.5L1 118.5V119.5L1.5 120H2.5L3.5 119H9.5L11.5 121H13.5L14.5 122H16.5L17.5 123L18.5 124H19.5L20.5 125H22.5L23.5 126L24.5 125H26.5L27.5 124H28.5L29.5 123H31.5L32 122.5V113.5L34 111.5V110.5L39 105.5V104.5L40.5 103H45.5L46 102.5L45.5 102H44.5L43 100.5V97.5L42 96.5V95.5L41 94.5V91.5L43 89.5V86.5L44.5 85H46.5L47.5 84H48.5L49 83.5V82.5L51 80.5V79.5L50.5 79H49.5L48 77.5V76.5L47 75.5V68.5L46 67.5V66.5L44 64.5V62.5L44.5 62L45.5 61L46.5 62H47.5L48.5 63H54.5L55 62.5V61.5L58 58.5V54.5L57 53.5V51.5L59.5 49H61.5L62 48.5V45.5L63 44.5V41.5L64 40.5V31.5L64.5 31H66.5L67 30.5V29.5L67.5 29H68.5L70.5 27H73.5L75.5 25H76.5L80 21.5V20.5L78.5 19H75.5L74 17.5V15.5L75 14.5V12.5L74.5 12H73.5L72.5 11H69.5L68.5 10H66.5L66 10.5L65.5 11H61.5L60.5 12H59.5L58.5 11H57.5L56.5 10L56 9.5V8.5L55.5 8H53.5L52.5 9L51.5 8H49.5L48.5 9H47.5L46 7.5V3.5L47 2.5V1.5L46.5 1Z" stroke="black"/>
</svg>
