<svg width="88" height="49" viewBox="0 0 88 49" fill="none" xmlns="http://www.w3.org/2000/svg">
<path d="M25 6.5L25.5 6H29.5L31.5 8H33.5L36 5.5V4.5L37.5 3H38.5L43 7.5V9.5L44.5 11H49.5L51 9.5V7.5L53.5 5H56.5L57.5 4H58.5L59.5 5H60.5L61.5 6H62.5L68.5 1L69.5 2H70.5L71.5 1H73.5L74.5 2H78.5L79 2.5V3.5L80.5 5H82.5L83.5 6H86.5L87 6.5V14.5L85 16.5V22.5L84.5 23H82.5L81.5 24H79.5L76.5 21H75.5L74.5 20H72.5L70.5 22H60.5L58 24.5V25.5L57 26.5V28.5L56 29.5V30.5L55.5 31H54.5L51.5 34H48.5L47.5 33H44.5L43 34.5V36.5L42.5 37H39.5L38.5 38H35.5L34.5 39H33.5L32 40.5V45.5L30.5 47H26.5L25.5 48H15.5L14.5 47H13.5L10.5 44H9.5L8.5 43H7.5L6.5 42H5.5L3 39.5V37.5L1 35.5V33.5L2 32.5V28.5L3 27.5V26.5L4.5 25H10.5L11.5 24H12.5L16 20.5V19.5L16.5 19H17.5L20 16.5V15.5L19 14.5V13.5L25 7.5V6.5Z" stroke="black"/>
</svg>
