<svg width="51" height="38" viewBox="0 0 51 38" fill="none" xmlns="http://www.w3.org/2000/svg">
<path d="M10.5 13H5.5L1 17.5L2.5 19H3.5L4 19.5V22.5L3 23.5L5 25.5V28.5L5.5 29H6.5L10 32.5V34.5L9.5 35H8.5L7.5 36H5.5L5 36.5L5.5 37H9.5L10.5 36H12.5L13.5 35H15.5L16.5 36H17.5L18 35.5V34.5L20.5 32H22.5L25.5 35H30.5L31.5 36L33 34.5V28.5L35.5 26H37.5L38 25.5V24.5L39 23.5V22.5L37 20.5V17.5L40.5 14H41.5L42.5 13H43.5L45.5 11H46.5L47 10.5V8.5L48.5 7H49.5L50 6.5L49 5.5V4.5L47 2.5V1.5L46.5 1H44.5L44 1.5V3.5L42.5 5H40.5L39.5 6H37.5L35.5 8H33.5L32.5 7L31.5 8H27.5L26.5 9H25.5L19.5 15H18.5L17.5 14H11.5L10.5 13Z" stroke="black"/>
</svg>
