<svg width="241" height="202" viewBox="0 0 241 202" fill="none" xmlns="http://www.w3.org/2000/svg">
<path d="M189.5 58H187.5L186.5 57L185.5 56H184.5L183.5 55H182.5L181.5 54H179.5L179 54.5V55.5L180 56.5L178.5 58L177.5 57H173.5L172.5 56L171.5 57H170.5L170 56.5V55.5L169.5 55H168.5L167.5 56H165.5L161.5 52H155.5L155 51.5V50.5L153 48.5V47.5L152.5 47H149.5L147.5 45H146.5L144.5 43H143.5L142 41.5V38.5L140.5 37L139.5 38L137.5 36H136.5L136 35.5V34.5L135.5 34H126.5L122.5 30H120.5L119.5 29H117.5L116.5 28L114.5 30H112.5L110.5 28H109.5L108.5 27H107.5L107 26.5V25.5L106.5 25H105.5L104.5 24H103.5L102.5 25L101.5 24H97.5L96.5 25L95.5 24L94.5 25H92.5L91.5 24H86.5L85.5 23H84.5L83.5 22H82.5L81.5 21H80.5L79.5 20H76.5L75 18.5V17.5L74.5 17L73.5 18L71.5 16H68.5L67 14.5V13.5L66.5 13H64.5L63.5 14H60.5L59.5 13H55.5L54.5 12H51.5L50.5 11H47.5L46.5 10H45.5L44.5 11L42.5 9H41.5L39 6.5V5.5L37.5 4H35.5L33.5 2L32.5 3L30.5 1L29.5 2H27.5L26.5 3H25.5L24.5 4H23.5L22.5 5H21.5L21 5.5V6.5L18.5 9H12.5L11.5 8H9.5L8.5 9H7.5L6.5 10H4.5L2 12.5V13.5L1 14.5L3 16.5V19.5L4 20.5V21.5L2 23.5L3.5 25H4.5L5.5 24L7 25.5V26.5L5 28.5V29.5L6 30.5V31.5L5.5 32H4.5L4 32.5L5 33.5V34.5L2 37.5V39.5L1 40.5L1.5 41H2.5L3.5 40H4.5L6.5 38H9.5L10.5 39H12.5L13.5 38H15.5L16 38.5V40.5L17 41.5V42.5L15 44.5V46.5L15.5 47L16.5 46H17.5L18.5 45H19.5L20.5 46H22.5L23.5 47H24.5L25.5 48H26.5L27.5 49H30.5L31 48.5V47.5L31.5 47H33.5L34.5 48H36.5L37.5 49H38.5L39.5 48L41.5 50H43.5L44 50.5V51.5L45 52.5V53.5L43 55.5V56.5L43.5 57H45.5L49 60.5V62.5L44.5 67H43.5L42.5 68H41.5L40.5 69H37.5L36 70.5V71.5L34.5 73H33.5L33 73.5V74.5L34 75.5V76.5L33 77.5V81.5L32 82.5V84.5L31 85.5V89.5L29.5 91H26.5L26 91.5V92.5L27 93.5V99.5L21.5 105H18.5L17.5 104H16.5L15.5 105L14.5 104L14 104.5V105.5L16 107.5V114.5L17 115.5V116.5L17.5 117H18.5L20 118.5V121.5L19.5 122H18.5L18 122.5V123.5L15.5 126H14.5L13.5 127H12.5L12 127.5V129.5L11 130.5V131.5L10 132.5V134.5L11 135.5V136.5L12 137.5V139.5L12.5 140L13.5 139H14.5L16 140.5V141.5L14 143.5V144.5L12.5 146H11.5L10.5 145L9.5 146H8.5L8 146.5L4.5 150H3.5L3 150.5V151.5L1 153.5V163.5L1.5 164H5.5L6.5 165H8.5L9 165.5V166.5L10.5 168H11.5L16 172.5V173.5L17 174.5V178.5L16 179.5V181.5L19 184.5V185.5L18 186.5V187.5L19 188.5V190.5L20 191.5V193.5L21.5 195H22.5L25 197.5V198.5L25.5 199H26.5L28.5 201H30.5L31 200.5V198.5L33.5 196H36.5L39.5 193H42.5L43.5 192H46.5L47.5 193H50.5L51.5 192H52.5L53.5 191H54.5L55.5 190H56.5L57.5 189H59.5L60.5 190H68.5L69.5 191H72.5L74.5 193H77.5L78.5 192H79.5L80.5 193H85.5L87.5 195H88.5L89.5 196H91.5L94.5 193H98.5L101 195.5V196.5L101.5 197L102.5 196H103.5L109 190.5V189.5L110 188.5V187.5L111 186.5V185.5L112.5 184H113.5L115.5 182H117.5L119.5 180H120.5L121.5 179H124.5L125.5 180L126.5 179H129.5L130.5 180H133.5L134.5 179L135 178.5L134.5 178H133.5L132 176.5L134 174.5V173.5L135 172.5V171.5L138 168.5V165.5L138.5 165H140.5L141 164.5V162.5L144.5 159H145.5L146.5 158H149.5L151.5 156H153.5L155.5 154H156.5L157 153.5V151.5L156.5 151H155.5L154.5 150H153.5L151 147.5V146.5L150 145.5V143.5L149 142.5L150 141.5V140.5L149 139.5V132.5L152 129.5V128.5L153 127.5V126.5L158 121.5V120.5L158.5 120H159.5L166 113.5V112.5L169 109.5V108.5L169.5 108H170.5L171.5 109L172.5 108H173.5L174.5 107H175.5L176 106.5V105.5L174 103.5V102.5L178.5 98H182.5L183.5 97H186.5L187.5 96H192.5L193.5 95H199.5L203.5 91H204.5L206.5 89H208.5L209.5 88H211.5L212.5 87H213.5L215.5 85H217.5L218.5 84H219.5L223 80.5V76.5L222 75.5V72.5L222.5 72H223.5L224.5 73L225 72.5V70.5L224.5 70H223.5L222.5 69H221.5L219.5 67.1281L218.5 68H215.5L215 68.5V69.5L214.5 70H210.5L207.5 67.1281H205.5L204.5 68H203.5L202.5 69L201.5 68L200.5 67.1281H200C199.1 67.6622 197.952 68 196.5 68C191.3 68 190 63.6667 190 61.5V58.5L189.5 58Z" stroke="black"/>
<path d="M230.5 128L230 128.5V129.5L231.5 131H233.5L236.5 134H237.5L238.5 135L240 133.5L239 132.5V130.5L236.5 128L235.5 129L234.5 128H230.5Z" stroke="black"/>
<path d="M216.5 130H213.5L212.5 131H210.5L209.5 132L208.5 133H207.5L206.5 134L205.5 135H204.5L203.5 136H202.5L201.5 137L201 137.5V138.5L201.5 139H202.5L203.5 140H204.5L205.5 139L206.5 138H207.5L209 139.5V140.5L208.5 141L208 141.5V142.5L209.5 144H212.5L213 144.5V145.5L213.5 146H215.5L219 142.5V141.5L221 139.5V138.5L223 136.5V135.5L221.5 134H220.5L219.5 135H218.5L217 133.5V130.5L216.5 130Z" stroke="black"/>
<path d="M182.5 147L182 147.5L181.5 148H179.5L177 150.5V152.5L177.5 153H180.5L181.5 152H182.5L185 149.5V147.5L184.5 147H182.5Z" stroke="black"/>
</svg>
