<svg width="77" height="47" viewBox="0 0 77 47" fill="none" xmlns="http://www.w3.org/2000/svg">
<path d="M54 15.5C54 10.3 58.3333 9 60.5 9L61 8.5L57.5 5H53.5L52.5 4H51.5L50.5 5H49.5L48.5 4H46.5L46 3.5V2.5L44.5 1L43 2.5V3.5L44 4.5V5.5L43.5 6H42.5L41.5 7H40.5L39.5 6H37.5L36.5 7H33.5L32.5 6L31.5 7H27.5L24.5 10H21.5L21 9.5V8.5L20.5 8H19.5L19 8.5V9.5L20 10.5L19 11.5V12.5L18.5 13L14 17.5V18.5L12.5 20H10.5L10 20.5V22.5L9 23.5V25.5L8.5 26H7.5L5.5 28H4.5L4 28.5V30.5L3 31.5V35.5L1 37.5V38.5L1.5 39L2.5 38H3.5L4 37.5V33.5L4.5 33H5.5L6.5 32H8.5L9.5 31H11.5L13.5 33L14 33.5V34.5L15 35.5V39.5L16 40.5V41.5L18 43.5V44.5L19.5 46H20.5L21.5 45H24.5L25.5 44H28.5L29.5 45H30.5L31.5 44H33.5L34 43.5V41.5L34.5 41H35.5L36 40.5V39.5L35 38.5V37.5L36.5 36H37.5L39 34.5V33.5L39.5 33H40.5L41.5 32L43 33.5V37.5L45 39.5V40.5L45.5 41H48.5L50 42.5V43.5L49 44.5L50.5 46L51 45.5V42.5L51.5 42L55 38.5V32.5L56.5 31H59.5L60 31.5V34.5L61.5 36H62.5L63.5 35H65.5L66.5 34L69.5 37L70 36.5V35.5L68 33.5V32.5L69 31.5V29.5L69.5 29H70.5L71.5 28H72.5L74.5 30H75.5L76 29.5L74 27.5V26.5L75 25.5V24L75.5 23L76 22.5L75.5 22H74.5L72.5 24H71.5L70.5 25L69.5 24H68.5L67.5 23H66.5L65 21.5V20.3529C63.5737 21.5993 61.7029 22 60.5 22C58.3333 22 54 20.7 54 15.5Z" stroke="black"/>
</svg>
