<svg width="134" height="252" viewBox="0 0 134 252" fill="none" xmlns="http://www.w3.org/2000/svg">
<path d="M124 238.5V235.5L125 234.5V233.5L124.5 233H117.5L115 230.5V229.5L115.5 229H116.5L118 227.5V223.5L119.5 222L120.5 223H122.5L124 221.5L123 220.5L124.5 219H125.5L127.5 217H128.5L129 216.5V215.5L130 214.5V212.5L131 211.5V210.5L132 209.5V208.5L133 207.5V203.5L132 202.5V200.5L127.5 196H126.5L125.5 195H121.5L120.5 194H116.5L113.5 197H111.5L109 194.5V193.5L111.5 191H112.5L114 189.5V185.5L113 184.5V182.5L111 180.5V179.5L109 177.5L110.5 176H111.5L112.5 177L113 176.5L111 174.5V172.5L109 170.5V165.5L110 164.5V163.5L107 160.5V157.5L101.5 152H100.5L97 148.5V147.5L96 146.5V141.5L95 140.5V135.5L94 134.5V133.5L95 132.5L94 131.5V130.5L95 129.5V126.5L91 122.5V120.5L90 119.5V118.5L88.5 117H87.5L86 115.5V114.5L85.5 114H84.5L82.5 112H80.5L78.5 114H75.5L73 111.5L74.5 110H76.5L78.5 108H83.5L84 107.5V106.5L82 104.5V103.5L85.5 100H86.5L87 99.5V97.5L89.5 95H90.5L92 93.5V91.5L94 89.5V87.5L95 86.5V85.5L100 80.5V78.5L99 77.5V75.5L97.5 74H91.5L90.5 73H88.5L87.5 72H85.5L84.5 73H83.5L80.5 70H79.5L78.5 71H75.5L73.5 73H72.5L71 71.5V70.5L72.5 69H73.5L75 67.5L74.5 67H73.5L72 65.5L75.5 62L76.5 61H77.5L78.5 60H79.5L80.5 59H81.5L83.5 57H84.5L88 53.5L87 53V51.5L89 49.5L88.5 49H87.5L86.5 48H84.5L83.5 49H82.5L81.5 48H80.5L79.5 49H77.5L76.5 48H74.5L73.5 49H70.5L70 48.5V47.5L69.5 47L68.5 48H67.5L66 46.5V45.5L65.5 45H64.5L62 47.5L63 48.5L61 50.5V51.5L59.5 53H58.5L58 53.5V55.5L56 57.5L58 59.5L56.5 61H52.5L51.5 62L50.5 61L49 62.5L50 63.5V64.5L49 65.5V67.5L47 69.5V72.5L48 73.5L46.5 75H45.5L43 72.5V67.5L44 66.5L43 65.5V63.5L42.5 63H41.5L41 63.5V66.5L39.5 68L38.5 67H35.5L35 67.5L36 68.5V69.5L36.5 70H38.5L40 71.5L39 72.5V74.5L40.5 76H42.5L44 77.5L43 78.5V79.5L45 81.5L44 82.5V84.5L42.5 86H39.5L39 86.5L40 87.5L38.5 89H37.5L36 90.5L36.5 91H37.5L39 92.5L35.5 96H34.5L34 96.5L34.5 97H39.5L40.5 96L41.5 97H43.5L45 98.5V100.5L42.5 103L41.5 102L40.5 103H39.5L36.5 106H34.5L33.5 107H30.5L30 107.5V109.5L29 110.5L31 112.5V113.5L31.5 114L32.5 113H34.5L35 112.5V110.5L38.5 107H39.5L41 108.5V110.5L42 111.5L40 113.5V114.5L39 115.5V117.5L37 119.5V121.5L37.5 122H39.5L41 120.5V117.5L42.5 116L44 117.5V119.5L44.5 120H46.5L47 119.5V114.5L45 112.5V111.5L47.5 109H49.5L52 111.5V113.5L51 114.5V115.5L53 117.5V119.5L54 120.5L52.5 122H51.5L50 123.5V124.5L46 128.5V130.5L44.5 132L43.5 131L43 131.5V134.5L44.5 136H45.5L46.5 135H47.5L51 138.5V139.5L52.5 141L53 140.5V139.5L54.5 138H55.5L56.5 139H57.5L58.5 140H59.5L61.5 138H64.5L65 137.5V136.5L65.5 136H67.5L69 137.5L66 140.5V141.5L64 143.5V144.5L63 145.5V148.5L64 149.5V150.5L65 151.5V154.5L67 156.5L66 157.5L66.5 158H67.5L69.5 156L72 158.5L71 159.5V161.5L70.5 162H69.5L68 163.5V166.5L69 167.5L66 170.5V174.5L65.5 175H64.5L63.5 176H55.5L54.5 175L53.5 176H52.5L50.5 174H49.5L48 172.5V171.5L47.5 171H44.5L44 171.5V172.5L43 173.5L44 174.5V175.5L46 177.5V179.5L44.5 181H43.5L42.5 182H41.5L40.5 183H39.5L38 184.5L38.5 185H41.5L42.5 184H44.5L45.5 183H47.5L48 183.5V185.5L47 186.5L49 188.5L47 190.5V191.5L48 192.5V193.5L45 196.5V197.5L42.5 200H40.5L39.5 201H35.5L33.5 203H31.5L30.5 202L28.5 204H26.5L26 204.5L27 205.5V207.5L26 208.5V209.5L26.5 210L27.5 209L29 210.5V212.5L29.5 213L30.5 212H33.5L34.5 211H36.5L37.5 210L40 212.5V215.5L40.5 216H43.5L44.5 215H45.5L47 216.5V218.5L50.5 222H51.5L52.5 223H54.5L58.5 219L59.5 220H61.5L62.5 221L63 221.5L62.5 222H61.5L60.5 223H59.5L57 225.5V226.5L55.5 228H51.5L49.5 226H47.5L46.5 225H38.5L38 225.5V227.5L36.5 229H34.5L33.5 228L32 229.5V232.5L29.5 235H28.5L26.5 237H25.5L24.5 238H23.5L23 238.5V239.5L21.5 241H20.5L17.5 244H16.5L15.5 245H14.5L13.5 244H12.5L10 246.5L11.5 248H12.5L13.5 247H15.5L17 248.5V250.5L17.5 251L18.5 250H19.5L20 249.5V248.5L22.5 246H24.5L26.5 244H32.5L33.5 245L34.5 244L37.5 247H38.5L41.5 250L45 246.5V245.5L46 244.5V242.5L47.5 241H49.5L50.5 240H57.5L58.5 241H59.5L62.5 244L63.5 243H64.5L65.5 244H67.5L68.5 245H69.5L71.5 243H76.5L80.5 247H81.5L84 244.5V243.5L85.5 242H86.5L88 243.5V244.5L88.5 245L89.5 244H99.5L100.5 245H101.5L103.5 247H104.5L106.5 245H111.5L113.5 243H114.5L115.5 244H116.5L117 243.5V242.5L119.5 240H122.5L124 238.5Z" stroke="black"/>
<path d="M45 152.5L50.5 147L51 147.5V150.5L50 151.5V152.5L48.5 154H47.5L46.5 155L45 153.5V152.5Z" stroke="black"/>
<path d="M27.5 150L26.5 151L23.5 148L22.5 147L21.5 148H19.5L19 147.5V145.5L17 143.5V139.5L15.5 138H13.5L13 138.5L11 140.5V141.5L9.5 143H6.5L4.5 141H3.5L3 140.5V138.5L2 137.5V136.5L1 135.5V134.5L1.5 134H4.5L5.5 133H6.5L7 132.5V130.5L7.5 130H10.5L11 129.5V128.5L13 126.5V125.5L14.5 124H17.5L20.5 121L21.5 122H24.5L25.5 121H27.5L28.5 122H29.5L30.5 123H31.5L32 123.5V126.5L33 127.5V130.5L34 131.5V132.5L35 133.5V134.5L34 135.5L37 138.5V143.5L34 146.5L33.5 147H32.5H31.5H30.5L29.5 148L29 148.5V149.5L28.5 150H27.5Z" stroke="black"/>
<path d="M34 87.5L33.5 87L32 88.5L32.5 89L34 87.5Z" stroke="black"/>
<path d="M29 89.5L28.5 89H27.5L27 89.5V90.5L27.5 91H28.5L29 90.5V89.5Z" stroke="black"/>
<path d="M39 79.5L38.5 79H37.5L37 79.5V80.5L37.5 81H38.5L39 80.5V79.5Z" stroke="black"/>
<path d="M26.5 61L26 61.5L28 63.5V64.5L27 65.5V67.5L26 68.5V70.5L25 71.5V73.5L23 75.5V76.5L23.5 77H24.5L25 76.5V75.5L27 73.5V71.5L29 69.5L28 68.5V67.5L29 66.5V65.5L29.5 65H30.5L31 64.5V61.5L30.5 61H26.5Z" stroke="black"/>
<path d="M38.5 49L37.5 48H36.5L35 49.5V52.5L34 53.5V54.5L35 55.5L33 57.5V58.5L34.5 60H35.5L36.5 59H37.5L39.5 57H41.5L44 54.5V52.5L45 51.5V50.5L48 47.5V44.5L47.5 44L46.5 45H44.5L42.5 47H40.5L38.5 49Z" stroke="black"/>
<path d="M86 41.5L85 42.5L86 43.5V44.5L86.5 45H87.5L88 44.5V43.5L89.5 42H90.5L92.5 44L94 42.5L93.5 42H92.5L90 39.5L91 38.5L88.5 36L87 37.5V38.5L86 39.5V41.5Z" stroke="black"/>
<path d="M116 16.5L112 12.5L112.5 12H115.5L117 10.5V9.5L115.5 8H114.5L114 7.5L116.5 5H119.5L123.5 1H124.5L125 1.5L124 2.5V3.5L123.5 4H122.5L121 5.5V7.5L120 8.5V10.5L119 11.5V13.5L118 14.5V16.5L117 17.5V19.5L116 20.5V21.5L115.5 22L115 21.5V20.5L116 19.5V16.5Z" stroke="black"/>
</svg>
